<?xml version="1.0" standalone="no"?>
<!DOCTYPE svg PUBLIC "-//W3C//DTD SVG 20010904//EN"
 "http://www.w3.org/TR/2001/REC-SVG-20010904/DTD/svg10.dtd">
<svg version="1.0" xmlns="http://www.w3.org/2000/svg"
 width="121.000000pt" height="112.000000pt" viewBox="0 0 121.000000 112.000000"
 preserveAspectRatio="xMidYMid meet">

<g transform="translate(0.000000,112.000000) scale(0.100000,-0.100000)"
fill="#000000" stroke="none">
<path d="M318 1045 c-109 -30 -194 -95 -234 -180 -13 -27 -24 -56 -24 -62 0
-20 77 -17 88 4 8 13 20 15 76 10 66 -6 66 -6 66 20 0 27 -5 27 93 6 35 -7 57
11 57 48 0 56 -65 71 -97 23 -9 -15 -25 -24 -41 -24 -14 0 -33 -7 -43 -16 -11
-10 -31 -14 -54 -12 l-37 3 29 40 c42 57 117 95 200 101 72 5 109 -6 125 -38
16 -35 23 -46 52 -82 22 -28 29 -48 29 -81 0 -24 -6 -51 -13 -60 -7 -8 -16
-36 -21 -60 -12 -64 -61 -131 -120 -163 -44 -24 -49 -31 -49 -62 0 -44 -12
-63 -36 -58 -12 2 -21 14 -24 33 -4 26 -11 30 -47 37 -43 7 -93 34 -93 49 0
16 73 10 92 -8 26 -23 46 -3 24 23 -14 17 -29 19 -121 16 -58 -2 -105 -6 -105
-10 0 -11 57 -103 91 -149 39 -52 49 -125 25 -192 -8 -25 -13 -48 -11 -52 3
-3 23 -9 46 -13 60 -10 186 -60 249 -101 30 -19 65 -35 78 -35 19 0 22 5 22
39 0 23 8 48 19 62 17 22 21 22 87 12 98 -15 134 1 134 60 0 24 -4 27 -31 27
-48 0 -134 47 -178 96 -97 110 -95 258 4 371 50 57 125 93 195 93 l39 0 -11
33 c-31 89 -109 176 -195 218 -99 48 -235 62 -335 34z m97 -145 c8 -26 -1 -40
-26 -40 -22 0 -34 22 -25 45 8 22 44 18 51 -5z"/>
<path d="M440 794 c-16 -9 -49 -13 -94 -12 -54 2 -71 -1 -80 -15 -10 -13 -33
-17 -112 -19 l-99 -3 -3 -27 c-3 -27 -2 -28 42 -28 25 0 46 5 46 10 0 15 104
12 136 -5 24 -12 32 -12 49 -1 11 7 21 25 23 40 3 23 8 26 39 26 20 0 52 -5
70 -12 28 -10 36 -10 50 5 14 13 15 21 7 35 -14 22 -42 24 -74 6z m58 -21 c-2
-10 -10 -18 -18 -18 -8 0 -16 8 -18 18 -2 12 3 17 18 17 15 0 20 -5 18 -17z
m-170 -36 c4 -20 -25 -34 -40 -19 -15 15 -1 44 19 40 10 -2 19 -11 21 -21z"/>
<path d="M783 720 c-47 -11 -115 -54 -141 -89 -121 -165 -11 -391 191 -391
170 0 278 141 237 311 -17 71 -87 141 -162 164 -56 16 -76 17 -125 5z m147
-80 c128 -65 117 -273 -17 -332 -89 -39 -179 -9 -240 82 -45 65 -21 195 42
236 72 47 142 51 215 14z"/>
<path d="M887 531 c-25 -27 -34 -42 -26 -47 7 -4 10 -3 6 2 -3 5 14 22 36 39
23 16 37 23 30 15 -6 -8 -12 -19 -12 -25 -1 -5 -5 -10 -11 -10 -5 0 -11 -4
-12 -10 0 -5 -8 -16 -17 -23 -14 -11 -13 -12 4 -3 11 5 32 22 48 38 26 28 27
30 9 46 -17 16 -20 14 -55 -22z"/>
<path d="M819 462 c-13 -16 -13 -16 5 -2 17 14 18 13 12 -6 -5 -16 -2 -24 11
-28 14 -6 15 -4 6 5 -6 6 -9 17 -7 24 8 21 -13 26 -27 7z"/>
<path d="M785 451 c-3 -5 -2 -12 3 -15 5 -3 9 1 9 9 0 17 -3 19 -12 6z"/>
<path d="M387 663 c-15 -16 -38 -18 -172 -17 -160 0 -164 -1 -149 -40 7 -18
88 -23 99 -6 3 6 45 10 93 10 70 0 93 -4 117 -20 52 -35 105 -18 105 34 0 48
-59 72 -93 39z m63 -37 c0 -29 -24 -40 -44 -20 -20 20 -9 44 20 44 19 0 24 -5
24 -24z"/>
<path d="M1022 277 c-17 -12 -32 -26 -32 -32 0 -11 127 -135 138 -135 17 0 52
33 52 48 0 10 -28 46 -63 80 l-62 62 -33 -23z"/>
</g>
</svg>
